<?xml version="1.0" encoding="utf-8"?>
<!-- Generator: Adobe Illustrator 17.1.0, SVG Export Plug-In . SVG Version: 6.00 Build 0)  -->
<!DOCTYPE svg PUBLIC "-//W3C//DTD SVG 1.1//EN" "http://www.w3.org/Graphics/SVG/1.1/DTD/svg11.dtd">
<svg version="1.1" id="Слой_1" xmlns="http://www.w3.org/2000/svg" xmlns:xlink="http://www.w3.org/1999/xlink" x="0px" y="0px"
	 viewBox="0 0 24 24" enable-background="new 0 0 24 24" xml:space="preserve">
<path fill="#FFFFFF" d="M20.4,6.2c-0.1-0.8-0.8-1.5-1.7-1.5h-1.6C17.1,2.1,14.8,0,12,0S6.9,2.1,6.9,4.7H5.3c-0.9,0-1.7,0.7-1.7,1.5
	l-1,16.2C2.5,23.3,3.2,24,4.1,24h15.9c0.9,0,1.6-0.7,1.5-1.5L20.4,6.2z M12,1.3c2,0,3.7,1.5,3.7,3.4H8.3C8.3,2.8,10,1.3,12,1.3z"/>
</svg>
