<?xml version="1.0" encoding="utf-8"?>
<!-- Generator: Adobe Illustrator 17.1.0, SVG Export Plug-In . SVG Version: 6.00 Build 0)  -->
<!DOCTYPE svg PUBLIC "-//W3C//DTD SVG 1.1//EN" "http://www.w3.org/Graphics/SVG/1.1/DTD/svg11.dtd">
<svg version="1.1" id="Слой_1" xmlns="http://www.w3.org/2000/svg" xmlns:xlink="http://www.w3.org/1999/xlink" x="0px" y="0px"
	 viewBox="0 0 1000 1000" enable-background="new 0 0 1000 1000" xml:space="preserve">
<g>
	<path fill="#143D8C" d="M647.5,217.5h-295c-75,0-135,60-135,135V645c0,75,60,135,135,135H645c75,0,135-60,135-135V352.5
		C782.5,277.5,722.5,217.5,647.5,217.5z M500,675c-95,0-175-77.5-175-175c0-95,77.5-175,175-175c95,0,175,77.5,175,175
		C675,595,595,675,500,675z M682.5,357.5c-22.5,0-42.5-20-42.5-42.5c0-22.5,20-42.5,42.5-42.5c22.5,0,42.5,20,42.5,42.5
		C722.5,340,705,357.5,682.5,357.5z"/>
	<path fill="#143D8C" d="M500,0C225,0,0,225,0,500s225,500,500,500s500-225,500-500S775,0,500,0z M840,647.5
		C840,755,752.5,840,647.5,840h-295C245,840,160,752.5,160,647.5v-295C160,245,247.5,160,352.5,160H645
		c107.5,0,192.5,87.5,192.5,192.5v295H840z"/>
	<path fill="#143D8C" d="M500,385c-65,0-115,52.5-115,115s52.5,115,115,115c65,0,115-52.5,115-115S565,385,500,385z"/>
</g>
</svg>
