<svg id="Слой_1" data-name="Слой 1" xmlns="http://www.w3.org/2000/svg" viewBox="0 0 20.62 24"><defs><style>.cls-1{fill:#fff;}</style></defs><title>personal</title><path class="cls-1" d="M1663.21,28v0.08a6.52,6.52,0,0,0,2.67,4.58,4,4,0,0,0,4.23,0,6.52,6.52,0,0,0,2.67-4.58V28h0c0-.13,0-0.27,0-0.4a4.82,4.82,0,0,0-9.62,0c0,0.14,0,.27,0,0.4h0Z" transform="translate(-1657.69 -23)"/><path class="cls-1" d="M1678,40.44h0q-0.18-.27-0.36-0.53l-0.08-.1-0.32-.42-0.17-.2-0.26-.3-0.22-.23-0.23-.24-0.3-.28-0.18-.17-0.32-.27-0.18-.15L1675,37.3l-0.16-.12-0.32-.24-0.12-.09h0a11.1,11.1,0,0,1-1.12.83l-0.12.07,0,0h0l-0.14.08-0.05,0-0.1.06a10.68,10.68,0,0,1-4.35,1.26h-0.94a10.68,10.68,0,0,1-4.35-1.26l-0.1-.06-0.05,0-0.14-.08h0l0,0-0.12-.07a11.1,11.1,0,0,1-1.12-.83h0l-0.12.09-0.32.24-0.16.12-0.36.27-0.18.15-0.32.27-0.18.17-0.3.28-0.23.24-0.22.23-0.26.3-0.17.2-0.32.42-0.08.1q-0.19.26-.36,0.53h0q-0.18.27-.34,0.56a12,12,0,0,0,3.25,3.65h0a11.76,11.76,0,0,0,14.12,0h0a12,12,0,0,0,3.25-3.65Q1678.15,40.71,1678,40.44Z" transform="translate(-1657.69 -23)"/></svg>