<?xml version="1.0" encoding="utf-8"?>
<!-- Generator: Adobe Illustrator 17.1.0, SVG Export Plug-In . SVG Version: 6.00 Build 0)  -->
<!DOCTYPE svg PUBLIC "-//W3C//DTD SVG 1.1//EN" "http://www.w3.org/Graphics/SVG/1.1/DTD/svg11.dtd">
<svg version="1.1" id="Слой_1" xmlns="http://www.w3.org/2000/svg" xmlns:xlink="http://www.w3.org/1999/xlink" x="0px" y="0px"
	 viewBox="0 0 1000 1000" enable-background="new 0 0 1000 1000" xml:space="preserve">
<path fill="#143D8C" d="M500,0C225,0,0,225,0,500s225,500,500,500s500-225,500-500S775,0,500,0z M787.5,720H700
	c0,0-20,2.5-42.5-12.5C625,685,595,627.5,570,635c-25,7.5-22.5,60-22.5,60s0,10-5,17.5c-5,7.5-17.5,7.5-17.5,7.5h-40
	c0,0-87.5,5-162.5-75C240,557.5,165,387.5,165,387.5s-5-12.5,0-17.5c5-5,20-7.5,20-7.5h95c0,0,10,2.5,15,5c5,5,7.5,10,7.5,10
	s15,37.5,35,72.5c40,67.5,57.5,82.5,70,75c20-10,12.5-95,12.5-95s0-30-10-45c-7.5-10-22.5-15-30-15c-5,0,2.5-12.5,15-17.5
	c17.5-7.5,47.5-7.5,82.5-7.5c27.5,0,35,2.5,45,5c32.5,7.5,22.5,37.5,22.5,110c0,22.5-5,55,12.5,67.5c7.5,5,25,0,67.5-75
	c20-35,37.5-77.5,37.5-77.5s2.5-7.5,7.5-10c5-2.5,12.5-2.5,12.5-2.5h100c0,0,30-2.5,35,10c5,15-10,47.5-52.5,100
	c-65,87.5-72.5,80-17.5,130c52.5,47.5,62.5,72.5,65,75C832.5,717.5,787.5,720,787.5,720z"/>
</svg>
